<svg xmlns="http://www.w3.org/2000/svg" viewBox="0 0 32 32" width="32" height="32">
  <defs>
    <linearGradient id="grad1" x1="0%" y1="0%" x2="100%" y2="100%">
      <stop offset="0%" style="stop-color:#3B82F6;stop-opacity:1" />
      <stop offset="100%" style="stop-color:#8B5CF6;stop-opacity:1" />
    </linearGradient>
  </defs>
  
  <!-- Background circle -->
  <circle cx="16" cy="16" r="15" fill="url(#grad1)" stroke="#1E40AF" stroke-width="1"/>
  
  <!-- Hotel building -->
  <rect x="8" y="12" width="16" height="12" fill="white" rx="2"/>
  
  <!-- Windows -->
  <rect x="10" y="14" width="3" height="3" fill="#3B82F6" rx="1"/>
  <rect x="15" y="14" width="3" height="3" fill="#3B82F6" rx="1"/>
  <rect x="20" y="14" width="2" height="3" fill="#3B82F6" rx="1"/>
  
  <rect x="10" y="18" width="3" height="3" fill="#3B82F6" rx="1"/>
  <rect x="15" y="18" width="3" height="3" fill="#3B82F6" rx="1"/>
  <rect x="20" y="18" width="2" height="3" fill="#3B82F6" rx="1"/>
  
  <!-- Door -->
  <rect x="14" y="20" width="4" height="4" fill="#1E40AF" rx="1"/>
  
  <!-- Roof -->
  <polygon points="8,12 16,6 24,12" fill="#1E40AF"/>
  
  <!-- Star on top -->
  <polygon points="16,4 17,6 19,6 17.5,7.5 18,9.5 16,8.5 14,9.5 14.5,7.5 13,6 15,6" fill="#FCD34D"/>
</svg>
